<svg id="visual" viewBox="0 0 900 600" width="900" height="600" xmlns="http://www.w3.org/2000/svg" xmlns:xlink="http://www.w3.org/1999/xlink" version="1.1"><path d="M0 97L82 37L164 61L245 67L327 43L409 55L491 67L573 43L655 49L736 97L818 85L900 79L900 0L818 0L736 0L655 0L573 0L491 0L409 0L327 0L245 0L164 0L82 0L0 0Z" fill="#00cc8e"></path><path d="M0 241L82 145L164 181L245 229L327 115L409 187L491 139L573 193L655 169L736 211L818 211L900 187L900 77L818 83L736 95L655 47L573 41L491 65L409 53L327 41L245 65L164 59L82 35L0 95Z" fill="#00b98a"></path><path d="M0 331L82 229L164 247L245 283L327 157L409 283L491 241L573 271L655 211L736 295L818 313L900 283L900 185L818 209L736 209L655 167L573 191L491 137L409 185L327 113L245 227L164 179L82 143L0 239Z" fill="#00a784"></path><path d="M0 415L82 367L164 427L245 409L327 325L409 403L491 379L573 427L655 457L736 409L818 457L900 409L900 281L818 311L736 293L655 209L573 269L491 239L409 281L327 155L245 281L164 245L82 227L0 329Z" fill="#00957c"></path><path d="M0 601L82 601L164 601L245 601L327 601L409 601L491 601L573 601L655 601L736 601L818 601L900 601L900 407L818 455L736 407L655 455L573 425L491 377L409 401L327 323L245 407L164 425L82 365L0 413Z" fill="#038373"></path></svg>